HIERARCHY
ROOT MidHip
{
    OFFSET 0.0 0.0 0.0
    CHANNELS 6 Xposition Yposition Zposition Zrotation Xrotation Yrotation
    JOINT Spine
    {
        OFFSET 0.0 0.0 10.271924628875608
        CHANNELS 3 Zrotation Xrotation Yrotation
        JOINT MidShoulder
        {
            OFFSET 0.0 0.0 10.27192462887561
            CHANNELS 3 Zrotation Xrotation Yrotation
            JOINT Nose
            {
                OFFSET 0.0 0.0 8.28526494293364
                CHANNELS 3 Zrotation Xrotation Yrotation
                End Site
                {
                    OFFSET 0.0 0.0 3.314105977173456
                }
            }
            JOINT RightShoulder
            {
                OFFSET -7.112126444757557 0.0 0.0
                CHANNELS 3 Zrotation Xrotation Yrotation
                JOINT RightElbow
                {
                    OFFSET -10.007591436753145 0.0 0.0
                    CHANNELS 3 Zrotation Xrotation Yrotation
                    JOINT RightWrist
                    {
                        OFFSET -9.415774919134275 0.0 0.0
                        CHANNELS 3 Zrotation Xrotation Yrotation
                        End Site
                        {
                            OFFSET -2.663183318178425 2.663183318178425 0.0
                        }
                        End Site
                        {
                            OFFSET -3.7663099676537106 0.0 0.0
                        }
                        End Site
                        {
                            OFFSET -2.663183318178425 -2.663183318178425 0.0
                        }
                    }
                }
            }
            JOINT LeftShoulder
            {
                OFFSET 7.112126444757557 0.0 0.0
                CHANNELS 3 Zrotation Xrotation Yrotation
                JOINT LeftElbow
                {
                    OFFSET 10.007591436753145 0.0 0.0
                    CHANNELS 3 Zrotation Xrotation Yrotation
                    JOINT LeftWrist
                    {
                        OFFSET 9.415774919134275 0.0 0.0
                        CHANNELS 3 Zrotation Xrotation Yrotation
                        End Site
                        {
                            OFFSET 2.663183318178425 2.663183318178425 0.0
                        }
                        End Site
                        {
                            OFFSET 3.7663099676537106 0.0 0.0
                        }
                        End Site
                        {
                            OFFSET 2.663183318178425 -2.663183318178425 0.0
                        }
                    }
                }
            }
        }
    }
    JOINT RightHip
    {
        OFFSET -4.186076885569875 0.0 0.0
        CHANNELS 3 Zrotation Xrotation Yrotation
        JOINT RightKnee
        {
            OFFSET 0.0 0.0 -14.25544161616549
            CHANNELS 3 Zrotation Xrotation Yrotation
            JOINT RightAnkle
            {
                OFFSET 0.0 0.0 -14.874419422607573
                CHANNELS 3 Zrotation Xrotation Yrotation
                End Site
                {
                    OFFSET 0.0 4.207121135975482 -4.207121135975482
                }
                End Site
                {
                    OFFSET 0.0 -4.207121135975482 -4.207121135975482
                }
            }
        }
    }
    JOINT LeftHip
    {
        OFFSET 4.186076885569875 0.0 0.0
        CHANNELS 3 Zrotation Xrotation Yrotation
        JOINT LeftKnee
        {
            OFFSET 0.0 0.0 -14.25544161616549
            CHANNELS 3 Zrotation Xrotation Yrotation
            JOINT LeftAnkle
            {
                OFFSET 0.0 0.0 -14.874419422607573
                CHANNELS 3 Zrotation Xrotation Yrotation
                End Site
                {
                    OFFSET 0.0 4.207121135975482 -4.207121135975482
                }
                End Site
                {
                    OFFSET 0.0 -4.207121135975482 -4.207121135975482
                }
            }
        }
    }
}
MOTION
Frames: 7
Frame Time: 0.03333333333333333
-3.4857201464441134 42.959645089234506 -1.1458191880642918 39.05667993881087 20.353351451576582 131.38929190936506 -1.2020986694543416 -5.993101621566079 0.5527392155460755 23.156391697722007 1.3420873636783849e-14 2.120339198797212e-15 1.5902773407317584e-15 -1.1034765745125397e-32 -7.951386703658792e-16 40.71841141959416 -43.53294224085642 -81.06887902059705 39.133620756376196 9.857158610613979e-15 -1.0254510508102694e-14 42.22242914085828 16.944304544499087 -14.813924536710829 5.1707123663031505 -19.10098714268653 62.39605867585215 -100.29665215367304 8.072474894604693e-16 -8.959675002197106e-15 -35.56004863915778 -17.362802429783518 167.9573868985415 -5.634847347220814 -26.167171634616306 -14.11729203255288 -0.9317317491163781 31.737972538704305 -3.517217696944915 -3.1805546814635168e-15 6.361109362927032e-15 9.541664044390547e-15 -23.678024301061487 -63.54514963919238 -33.03212659977102 -2.5934543750274277 20.401765242391548 10.727126954014212 3.1805546814635168e-15 6.3611093629270335e-15 -1.7655625192200634e-31
-3.1127328031585515 43.08966203921374 -1.1297747859557004 37.83463378443507 22.397666763727933 131.46699378956308 -0.9678667093975387 -5.924865746963442 1.3500392865179556 21.422743088610506 -6.2502729339417265e-15 1.182286166016271e-15 0.0 0.0 -7.951386703658792e-16 33.95714900290021 -43.36319153654842 -89.63070362827355 40.048221467862064 1.575157166891449e-14 -1.2510999689482452e-14 38.31859224400921 14.869955494000822 -11.46445151200512 8.829380692305328 -21.19992987877653 63.23074442840041 -98.52017429217088 4.15142771313705e-15 4.8196846649667505e-15 -34.35146464126364 -3.739619953634058 177.44758321866541 -4.614140187960823 -26.30022718355046 -12.669524527938961 -1.4488711399297995 31.679665227738333 -2.7924346252720174 0.0 0.0 -7.951386703658792e-16 -19.876009586769364 -64.41749226490506 -27.627146442952558 -2.1856329574040467 20.62654342116597 10.082753156214471 -3.1805546814635168e-15 0.0 0.0
-2.848787555017024 43.234673490211314 -1.1394785402502337 38.18183726193724 23.0738955039785 130.93033272891333 -0.8399327002488642 -5.811889156966275 1.5899410531567166 22.292873120538435 1.3711942643119348e-14 3.781691498178429e-15 0.0 0.0 7.951386703658792e-16 34.6726729931117 -43.568706027824106 -90.16684629010442 38.63510574996671 6.0029766947099084e-15 -2.1042773414851175e-15 34.32180914189995 9.476749887735254 -6.413506489106848 8.353821154420295 -21.804657066434256 64.45526160554812 -95.3335178897547 -1.6039809437965357e-14 6.007197979537773e-15 -29.022996908041264 -14.867369123605325 171.89778061338 -4.133639307995593 -26.588522787128625 -11.247105855411037 -1.2767827576955268 31.595261337913715 -2.560653913226303 3.1805546814635168e-15 2.2069531490250793e-32 7.951386703658792e-16 -18.057354853160987 -65.07935082406492 -25.94938908214382 -2.51608185228579 22.08198269921886 10.724516434084043 0.0 0.0 0.0
-2.446154169656666 43.313967936949126 -1.3272606199049166 38.16679670829932 23.97986786859242 130.58085378657546 -0.7799005516403942 -6.4811843440878425 2.0331316735137936 21.696927086103436 8.97928378278431e-16 4.685569635752533e-15 0.0 0.0 -7.951386703658792e-16 38.5819313268327 -42.816261297259615 -84.6217890681264 37.92952873336199 1.4098914491386705e-14 1.881268667722892e-15 23.42819286953686 18.150769483464135 -7.687780685761778 10.716504368276084 -21.802460080179763 66.50375746589076 -92.50356743483297 0.0 -0.0 -18.335005199351237 -18.244214287700395 174.07678078689412 -4.025140387688889 -30.363970851735935 -8.213485523968929 -0.22301987869814208 37.708602982995416 -6.038833121204458 0.0 0.0 -1.5902773407317584e-15 -14.753068765063913 -64.80282051773258 -21.71936445233708 -2.2867836329276647 22.53488606950542 9.446281115361371 0.0 0.0 0.0
-2.1549076274188703 43.46568230943401 -1.4913773747479702 38.53367820896613 24.090665708942794 129.77211081231547 -0.6924265783957382 -7.450738657476208 2.179396372042044 21.89207773929879 5.9434093310454886e-15 -2.7692200835622056e-15 0.0 0.0 -1.5902773407317584e-15 38.32177881752983 -42.10410729848016 -82.73777502403044 35.58548154179223 -8.226103243799278e-15 1.600127882512203e-14 22.65081315414642 16.619099677019705 -6.806128702672691 10.505376017443579 -21.90002156275484 68.2406393287606 -88.45676212025414 4.437001854718151e-15 -4.558149500438273e-15 -17.09100201892402 -14.980098499985266 175.4559416308678 -3.0548304516174474 -29.97220036634167 -7.263449935218279 -0.85637335910005 36.29142490316437 -4.408497542869087 -1.5902773407317588e-15 -3.1805546814635176e-15 -2.3854160110976384e-15 -11.415840952711592 -64.97343381217901 -17.830803505152176 -2.2827555977572276 23.363969933959588 8.156665831454436 3.1805546814635168e-15 6.3611093629270335e-15 3.1805546814635168e-15
-1.68876184859032 43.527441125222474 -1.4571910198985631 40.53129557191269 23.227691106315163 129.18684928406353 -0.8805095283322265 -7.908452155137067 1.68999846351279 23.30499441597974 6.423937136333227e-16 3.1150053609045167e-15 0.0 0.0 7.951386703658792e-16 49.78363063003639 -41.24921185990157 -70.76876709025004 31.255138894871642 9.188937894481836e-15 -2.5703643919435164e-15 23.217945615563877 -6.120191694703285 2.618572405737409 10.254506259610057 -20.092334507009586 68.56600210542794 -85.12394183041972 1.1521788357841947e-14 6.262521091968404e-15 -27.074190824683992 -48.523835175812394 159.0443965381937 -3.565919606409546 -29.345966138647775 -8.695786660263792 -1.026920150252619 35.316540959776155 -1.179700503175618 1.5902773407317584e-15 1.1034765745125397e-32 7.951386703658792e-16 -12.448898467506428 -62.83403809458977 -21.84167123859462 -3.264862800476077 22.298547647107622 11.381402195853925 3.1805546814635168e-15 0.0 0.0
-1.0102257026181936 43.58068816233913 -1.68129648544314 40.37822981048611 25.65551569409591 128.57126981321235 -0.308956749417051 -7.4531700214310055 2.380248355292234 21.37581101421361 5.955825074489692e-15 -2.7424153641712816e-15 0.0 0.0 7.951386703658792e-16 31.285793721113105 -40.70494465951542 -84.40743254527412 33.504915439151915 7.924646768000524e-15 4.257628243124903e-15 22.04056090505731 24.206273466020978 -9.425027796342102 7.180934111051162 -17.549536302024094 68.21839866075555 -83.73779900942031 1.3719490046186685e-14 3.754218228629534e-15 -31.311722116603015 -57.694915900475785 152.7907045368622 -1.2585474085988273 -28.05157077924945 -6.262096306395405 -2.475219343148279 34.56164912656097 -1.361194482160206 3.1805546814635176e-15 -6.620859447075238e-32 -2.3854160110976384e-15 -4.53032151831082 -62.44242536653889 -13.081127586823438 -3.4931268590701126 23.50741242768321 10.288216049977507 0.0 0.0 0.0
